<svg width="28" height="28" viewBox="0 0 28 28" fill="none" xmlns="http://www.w3.org/2000/svg">
<path d="M0 26.7019C0 27.4146 0.572727 27.9873 1.28545 27.9873H17.8182C18.5309 27.9873 19.1036 27.4146 19.1036 26.7019V25.4546H0V26.7019ZM9.54545 10.1692C4.77273 10.1692 0 12.7273 0 17.8182H19.0909C19.0909 12.7273 14.3182 10.1692 9.54545 10.1692ZM3.33455 15.2728C4.74727 13.3001 7.75091 12.7146 9.54545 12.7146C11.34 12.7146 14.3436 13.3001 15.7564 15.2728H3.33455ZM0 20.3637H19.0909V22.9092H0V20.3637ZM21.6364 5.09097V6.10352e-05H19.0909V5.09097H12.7273L13.02 7.63642H25.1873L23.4055 25.4546H21.6364V28.0001H23.8255C24.8945 28.0001 25.7727 27.1728 25.9 26.1292L28 5.09097H21.6364Z" fill="#1E1E1E"/>
</svg>
