<svg width="26" height="30" viewBox="0 0 26 30" fill="none" xmlns="http://www.w3.org/2000/svg">
<path d="M16.6111 6.75024C16.6111 5.49024 18.7778 3.00024 18.7778 3.00024C18.7778 3.00024 20.9444 5.49024 20.9444 6.75024C20.9444 7.99524 19.9767 9.00024 18.7778 9.00024C17.5789 9.00024 16.6111 7.99524 16.6111 6.75024ZM22.3889 19.5002C24.3822 19.5002 26 17.8202 26 15.7502C26 13.2452 22.3889 9.00024 22.3889 9.00024C22.3889 9.00024 18.7778 13.2452 18.7778 15.7502C18.7778 17.8202 20.3956 19.5002 22.3889 19.5002ZM13 18.0002H10.1111V15.0002H7.22222V18.0002H4.33333V21.0002H7.22222V24.0002H10.1111V21.0002H13V18.0002ZM17.3333 15.0002V27.0002C17.3333 28.6502 16.0333 30.0002 14.4444 30.0002H2.88889C1.3 30.0002 0 28.6502 0 27.0002V15.0002C0 10.5452 3.12 6.85524 7.22222 6.13524V3.00024H4.33333V0.000244141H13C14.6322 0.000244141 16.1056 0.585244 17.3189 1.51524L15.2533 3.66024C14.5889 3.25524 13.8233 3.00024 13 3.00024H10.1111V6.13524C14.2133 6.85524 17.3333 10.5452 17.3333 15.0002ZM14.4444 15.0002C14.4444 11.6852 11.8589 9.00024 8.66667 9.00024C5.47444 9.00024 2.88889 11.6852 2.88889 15.0002V27.0002H14.4444V15.0002Z" fill="#1E1E1E"/>
</svg>
