<svg width="34" height="34" viewBox="0 0 34 34" fill="none" xmlns="http://www.w3.org/2000/svg">
<g clip-path="url(#clip0_528_448)">
<path d="M29.75 10.3136V7.08358C29.75 5.52524 28.475 4.25024 26.9167 4.25024H7.08333C5.51083 4.25024 4.25 5.52524 4.25 7.08358V26.9169C4.25 28.4752 5.51083 29.7502 7.08333 29.7502H26.9167C28.475 29.7502 29.75 28.4752 29.75 26.9169V23.6869C30.5858 23.1911 31.1667 22.2986 31.1667 21.2502V12.7502C31.1667 11.7019 30.5858 10.8094 29.75 10.3136ZM28.3333 12.7502V21.2502H18.4167V12.7502H28.3333ZM7.08333 26.9169V7.08358H26.9167V9.91691H18.4167C16.8583 9.91691 15.5833 11.1919 15.5833 12.7502V21.2502C15.5833 22.8086 16.8583 24.0836 18.4167 24.0836H26.9167V26.9169H7.08333Z" fill="#1E1E1E"/>
<path d="M22.6667 19.1252C23.8404 19.1252 24.7917 18.1738 24.7917 17.0002C24.7917 15.8266 23.8404 14.8752 22.6667 14.8752C21.4931 14.8752 20.5417 15.8266 20.5417 17.0002C20.5417 18.1738 21.4931 19.1252 22.6667 19.1252Z" fill="#1E1E1E"/>
</g>
<defs>
<clipPath id="clip0_528_448">
<rect width="34" height="34" fill="white" transform="translate(0 0.000244141)"/>
</clipPath>
</defs>
</svg>
